<mxfile host="app.diagrams.net" agent="Mozilla/5.0 (Windows NT 10.0; Win64; x64) AppleWebKit/537.36 (KHTML, like Gecko) Chrome/135.0.0.0 Safari/537.36" version="26.2.12">
  <diagram name="第 1 页" id="DijogjNfAw5e3Yrmv6WH">
    <mxGraphModel dx="4136" dy="2326" grid="0" gridSize="10" guides="1" tooltips="1" connect="1" arrows="1" fold="1" page="0" pageScale="1" pageWidth="1169" pageHeight="827" math="0" shadow="0">
      <root>
        <mxCell id="0" />
        <mxCell id="1" parent="0" />
        <mxCell id="r17a9l35mVNuxCdQiz5q-1" value="粒子系统分类" style="whiteSpace=wrap;strokeWidth=2;" vertex="1" parent="1">
          <mxGeometry x="2048" y="20" width="156" height="54" as="geometry" />
        </mxCell>
        <mxCell id="r17a9l35mVNuxCdQiz5q-2" value="基础类型" style="whiteSpace=wrap;strokeWidth=2;" vertex="1" parent="1">
          <mxGeometry x="1021" y="124" width="124" height="54" as="geometry" />
        </mxCell>
        <mxCell id="r17a9l35mVNuxCdQiz5q-3" value="UE引擎扩展类型" style="whiteSpace=wrap;strokeWidth=2;" vertex="1" parent="1">
          <mxGeometry x="3082" y="124" width="175" height="54" as="geometry" />
        </mxCell>
        <mxCell id="r17a9l35mVNuxCdQiz5q-4" value="Billboard粒子" style="whiteSpace=wrap;strokeWidth=2;" vertex="1" parent="1">
          <mxGeometry x="312" y="228" width="156" height="54" as="geometry" />
        </mxCell>
        <mxCell id="r17a9l35mVNuxCdQiz5q-5" value="Mesh粒子" style="whiteSpace=wrap;strokeWidth=2;" vertex="1" parent="1">
          <mxGeometry x="1019" y="228" width="127" height="54" as="geometry" />
        </mxCell>
        <mxCell id="r17a9l35mVNuxCdQiz5q-6" value="Ribbon粒子" style="whiteSpace=wrap;strokeWidth=2;" vertex="1" parent="1">
          <mxGeometry x="1673" y="228" width="141" height="54" as="geometry" />
        </mxCell>
        <mxCell id="r17a9l35mVNuxCdQiz5q-7" value="Beam粒子" style="whiteSpace=wrap;strokeWidth=2;" vertex="1" parent="1">
          <mxGeometry x="2365" y="228" width="131" height="54" as="geometry" />
        </mxCell>
        <mxCell id="r17a9l35mVNuxCdQiz5q-8" value="AnimTrail粒子" style="whiteSpace=wrap;strokeWidth=2;" vertex="1" parent="1">
          <mxGeometry x="3089" y="228" width="159" height="54" as="geometry" />
        </mxCell>
        <mxCell id="r17a9l35mVNuxCdQiz5q-9" value="Niagara GPU粒子" style="whiteSpace=wrap;strokeWidth=2;" vertex="1" parent="1">
          <mxGeometry x="3746" y="228" width="181" height="54" as="geometry" />
        </mxCell>
        <mxCell id="r17a9l35mVNuxCdQiz5q-10" value="效果：面向摄像机的2D面片" style="rounded=1;arcSize=20;strokeWidth=2" vertex="1" parent="1">
          <mxGeometry x="20" y="332" width="224" height="54" as="geometry" />
        </mxCell>
        <mxCell id="r17a9l35mVNuxCdQiz5q-11" value="应用：火焰/雨雪/烟雾" style="rounded=1;arcSize=20;strokeWidth=2" vertex="1" parent="1">
          <mxGeometry x="294" y="332" width="191" height="54" as="geometry" />
        </mxCell>
        <mxCell id="r17a9l35mVNuxCdQiz5q-12" value="技术：GPU实例化渲染" style="rounded=1;arcSize=20;strokeWidth=2" vertex="1" parent="1">
          <mxGeometry x="535" y="332" width="188" height="54" as="geometry" />
        </mxCell>
        <mxCell id="r17a9l35mVNuxCdQiz5q-13" value="效果：3D网格模型" style="rounded=1;arcSize=20;strokeWidth=2" vertex="1" parent="1">
          <mxGeometry x="773" y="332" width="160" height="54" as="geometry" />
        </mxCell>
        <mxCell id="r17a9l35mVNuxCdQiz5q-14" value="应用：飞鸟群/碎片爆炸" style="rounded=1;arcSize=20;strokeWidth=2" vertex="1" parent="1">
          <mxGeometry x="983" y="332" width="198" height="54" as="geometry" />
        </mxCell>
        <mxCell id="r17a9l35mVNuxCdQiz5q-15" value="技术：LOD优化" style="rounded=1;arcSize=20;strokeWidth=2" vertex="1" parent="1">
          <mxGeometry x="1232" y="332" width="139" height="54" as="geometry" />
        </mxCell>
        <mxCell id="r17a9l35mVNuxCdQiz5q-16" value="效果：连续带状轨迹" style="rounded=1;arcSize=20;strokeWidth=2" vertex="1" parent="1">
          <mxGeometry x="1420" y="332" width="174" height="54" as="geometry" />
        </mxCell>
        <mxCell id="r17a9l35mVNuxCdQiz5q-17" value="应用：光刃拖尾/能量束" style="rounded=1;arcSize=20;strokeWidth=2" vertex="1" parent="1">
          <mxGeometry x="1644" y="332" width="198" height="54" as="geometry" />
        </mxCell>
        <mxCell id="r17a9l35mVNuxCdQiz5q-18" value="技术：路径插值算法" style="rounded=1;arcSize=20;strokeWidth=2" vertex="1" parent="1">
          <mxGeometry x="1893" y="332" width="174" height="54" as="geometry" />
        </mxCell>
        <mxCell id="r17a9l35mVNuxCdQiz5q-19" value="效果：动态激光束" style="rounded=1;arcSize=20;strokeWidth=2" vertex="1" parent="1">
          <mxGeometry x="2117" y="332" width="158" height="54" as="geometry" />
        </mxCell>
        <mxCell id="r17a9l35mVNuxCdQiz5q-20" value="模块：Source/Target绑定" style="rounded=1;arcSize=20;strokeWidth=2" vertex="1" parent="1">
          <mxGeometry x="2325" y="332" width="211" height="54" as="geometry" />
        </mxCell>
        <mxCell id="r17a9l35mVNuxCdQiz5q-21" value="技术：碰撞检测触发子粒子" style="rounded=1;arcSize=20;strokeWidth=2" vertex="1" parent="1">
          <mxGeometry x="2586" y="332" width="222" height="54" as="geometry" />
        </mxCell>
        <mxCell id="r17a9l35mVNuxCdQiz5q-22" value="效果：骨骼动画残影" style="rounded=1;arcSize=20;strokeWidth=2" vertex="1" parent="1">
          <mxGeometry x="2858" y="332" width="174" height="54" as="geometry" />
        </mxCell>
        <mxCell id="r17a9l35mVNuxCdQiz5q-23" value="模块：骨骼数据绑定" style="rounded=1;arcSize=20;strokeWidth=2" vertex="1" parent="1">
          <mxGeometry x="3082" y="332" width="174" height="54" as="geometry" />
        </mxCell>
        <mxCell id="r17a9l35mVNuxCdQiz5q-24" value="技术：颜色渐变混合" style="rounded=1;arcSize=20;strokeWidth=2" vertex="1" parent="1">
          <mxGeometry x="3306" y="332" width="174" height="54" as="geometry" />
        </mxCell>
        <mxCell id="r17a9l35mVNuxCdQiz5q-25" value="效果：亿级粒子模拟" style="rounded=1;arcSize=20;strokeWidth=2" vertex="1" parent="1">
          <mxGeometry x="3530" y="332" width="174" height="54" as="geometry" />
        </mxCell>
        <mxCell id="r17a9l35mVNuxCdQiz5q-26" value="架构：Niagara系统" style="rounded=1;arcSize=20;strokeWidth=2" vertex="1" parent="1">
          <mxGeometry x="3754" y="332" width="164" height="54" as="geometry" />
        </mxCell>
        <mxCell id="r17a9l35mVNuxCdQiz5q-27" value="技术：GPU并行计算着色器" style="rounded=1;arcSize=20;strokeWidth=2" vertex="1" parent="1">
          <mxGeometry x="3968" y="332" width="220" height="54" as="geometry" />
        </mxCell>
        <mxCell id="r17a9l35mVNuxCdQiz5q-28" value="" style="curved=1;startArrow=none;endArrow=block;exitX=0;exitY=0.57;entryX=0.5;entryY=0;rounded=0;fontSize=12;startSize=8;endSize=8;" edge="1" parent="1" source="r17a9l35mVNuxCdQiz5q-1" target="r17a9l35mVNuxCdQiz5q-2">
          <mxGeometry relative="1" as="geometry">
            <Array as="points">
              <mxPoint x="1083" y="99" />
            </Array>
          </mxGeometry>
        </mxCell>
        <mxCell id="r17a9l35mVNuxCdQiz5q-29" value="" style="curved=1;startArrow=none;endArrow=block;exitX=1;exitY=0.57;entryX=0.5;entryY=0;rounded=0;fontSize=12;startSize=8;endSize=8;" edge="1" parent="1" source="r17a9l35mVNuxCdQiz5q-1" target="r17a9l35mVNuxCdQiz5q-3">
          <mxGeometry relative="1" as="geometry">
            <Array as="points">
              <mxPoint x="3169" y="99" />
            </Array>
          </mxGeometry>
        </mxCell>
        <mxCell id="r17a9l35mVNuxCdQiz5q-30" value="" style="curved=1;startArrow=none;endArrow=block;exitX=0;exitY=0.59;entryX=0.5;entryY=0;rounded=0;fontSize=12;startSize=8;endSize=8;" edge="1" parent="1" source="r17a9l35mVNuxCdQiz5q-2" target="r17a9l35mVNuxCdQiz5q-4">
          <mxGeometry relative="1" as="geometry">
            <Array as="points">
              <mxPoint x="390" y="203" />
            </Array>
          </mxGeometry>
        </mxCell>
        <mxCell id="r17a9l35mVNuxCdQiz5q-31" value="" style="curved=1;startArrow=none;endArrow=block;exitX=0.5;exitY=1;entryX=0.5;entryY=0;rounded=0;fontSize=12;startSize=8;endSize=8;" edge="1" parent="1" source="r17a9l35mVNuxCdQiz5q-2" target="r17a9l35mVNuxCdQiz5q-5">
          <mxGeometry relative="1" as="geometry">
            <Array as="points" />
          </mxGeometry>
        </mxCell>
        <mxCell id="r17a9l35mVNuxCdQiz5q-32" value="" style="curved=1;startArrow=none;endArrow=block;exitX=1;exitY=0.59;entryX=0.5;entryY=0;rounded=0;fontSize=12;startSize=8;endSize=8;" edge="1" parent="1" source="r17a9l35mVNuxCdQiz5q-2" target="r17a9l35mVNuxCdQiz5q-6">
          <mxGeometry relative="1" as="geometry">
            <Array as="points">
              <mxPoint x="1744" y="203" />
            </Array>
          </mxGeometry>
        </mxCell>
        <mxCell id="r17a9l35mVNuxCdQiz5q-33" value="" style="curved=1;startArrow=none;endArrow=block;exitX=0;exitY=0.61;entryX=0.5;entryY=0;rounded=0;fontSize=12;startSize=8;endSize=8;" edge="1" parent="1" source="r17a9l35mVNuxCdQiz5q-3" target="r17a9l35mVNuxCdQiz5q-7">
          <mxGeometry relative="1" as="geometry">
            <Array as="points">
              <mxPoint x="2430" y="203" />
            </Array>
          </mxGeometry>
        </mxCell>
        <mxCell id="r17a9l35mVNuxCdQiz5q-34" value="" style="curved=1;startArrow=none;endArrow=block;exitX=0.5;exitY=1;entryX=0.5;entryY=0;rounded=0;fontSize=12;startSize=8;endSize=8;" edge="1" parent="1" source="r17a9l35mVNuxCdQiz5q-3" target="r17a9l35mVNuxCdQiz5q-8">
          <mxGeometry relative="1" as="geometry">
            <Array as="points" />
          </mxGeometry>
        </mxCell>
        <mxCell id="r17a9l35mVNuxCdQiz5q-35" value="" style="curved=1;startArrow=none;endArrow=block;exitX=1;exitY=0.63;entryX=0.5;entryY=0;rounded=0;fontSize=12;startSize=8;endSize=8;" edge="1" parent="1" source="r17a9l35mVNuxCdQiz5q-3" target="r17a9l35mVNuxCdQiz5q-9">
          <mxGeometry relative="1" as="geometry">
            <Array as="points">
              <mxPoint x="3836" y="203" />
            </Array>
          </mxGeometry>
        </mxCell>
        <mxCell id="r17a9l35mVNuxCdQiz5q-36" value="" style="curved=1;startArrow=none;endArrow=block;exitX=0;exitY=0.79;entryX=0.5;entryY=0;rounded=0;fontSize=12;startSize=8;endSize=8;" edge="1" parent="1" source="r17a9l35mVNuxCdQiz5q-4" target="r17a9l35mVNuxCdQiz5q-10">
          <mxGeometry relative="1" as="geometry">
            <Array as="points">
              <mxPoint x="132" y="307" />
            </Array>
          </mxGeometry>
        </mxCell>
        <mxCell id="r17a9l35mVNuxCdQiz5q-37" value="" style="curved=1;startArrow=none;endArrow=block;exitX=0.5;exitY=1;entryX=0.5;entryY=0;rounded=0;fontSize=12;startSize=8;endSize=8;" edge="1" parent="1" source="r17a9l35mVNuxCdQiz5q-4" target="r17a9l35mVNuxCdQiz5q-11">
          <mxGeometry relative="1" as="geometry">
            <Array as="points" />
          </mxGeometry>
        </mxCell>
        <mxCell id="r17a9l35mVNuxCdQiz5q-38" value="" style="curved=1;startArrow=none;endArrow=block;exitX=1;exitY=0.81;entryX=0.5;entryY=0;rounded=0;fontSize=12;startSize=8;endSize=8;" edge="1" parent="1" source="r17a9l35mVNuxCdQiz5q-4" target="r17a9l35mVNuxCdQiz5q-12">
          <mxGeometry relative="1" as="geometry">
            <Array as="points">
              <mxPoint x="629" y="307" />
            </Array>
          </mxGeometry>
        </mxCell>
        <mxCell id="r17a9l35mVNuxCdQiz5q-39" value="" style="curved=1;startArrow=none;endArrow=block;exitX=0;exitY=0.77;entryX=0.5;entryY=0;rounded=0;fontSize=12;startSize=8;endSize=8;" edge="1" parent="1" source="r17a9l35mVNuxCdQiz5q-5" target="r17a9l35mVNuxCdQiz5q-13">
          <mxGeometry relative="1" as="geometry">
            <Array as="points">
              <mxPoint x="853" y="307" />
            </Array>
          </mxGeometry>
        </mxCell>
        <mxCell id="r17a9l35mVNuxCdQiz5q-40" value="" style="curved=1;startArrow=none;endArrow=block;exitX=0.5;exitY=1;entryX=0.5;entryY=0;rounded=0;fontSize=12;startSize=8;endSize=8;" edge="1" parent="1" source="r17a9l35mVNuxCdQiz5q-5" target="r17a9l35mVNuxCdQiz5q-14">
          <mxGeometry relative="1" as="geometry">
            <Array as="points" />
          </mxGeometry>
        </mxCell>
        <mxCell id="r17a9l35mVNuxCdQiz5q-41" value="" style="curved=1;startArrow=none;endArrow=block;exitX=1;exitY=0.78;entryX=0.5;entryY=0;rounded=0;fontSize=12;startSize=8;endSize=8;" edge="1" parent="1" source="r17a9l35mVNuxCdQiz5q-5" target="r17a9l35mVNuxCdQiz5q-15">
          <mxGeometry relative="1" as="geometry">
            <Array as="points">
              <mxPoint x="1301" y="307" />
            </Array>
          </mxGeometry>
        </mxCell>
        <mxCell id="r17a9l35mVNuxCdQiz5q-42" value="" style="curved=1;startArrow=none;endArrow=block;exitX=0;exitY=0.79;entryX=0.5;entryY=0;rounded=0;fontSize=12;startSize=8;endSize=8;" edge="1" parent="1" source="r17a9l35mVNuxCdQiz5q-6" target="r17a9l35mVNuxCdQiz5q-16">
          <mxGeometry relative="1" as="geometry">
            <Array as="points">
              <mxPoint x="1507" y="307" />
            </Array>
          </mxGeometry>
        </mxCell>
        <mxCell id="r17a9l35mVNuxCdQiz5q-43" value="" style="curved=1;startArrow=none;endArrow=block;exitX=0.5;exitY=1;entryX=0.5;entryY=0;rounded=0;fontSize=12;startSize=8;endSize=8;" edge="1" parent="1" source="r17a9l35mVNuxCdQiz5q-6" target="r17a9l35mVNuxCdQiz5q-17">
          <mxGeometry relative="1" as="geometry">
            <Array as="points" />
          </mxGeometry>
        </mxCell>
        <mxCell id="r17a9l35mVNuxCdQiz5q-44" value="" style="curved=1;startArrow=none;endArrow=block;exitX=1;exitY=0.79;entryX=0.5;entryY=0;rounded=0;fontSize=12;startSize=8;endSize=8;" edge="1" parent="1" source="r17a9l35mVNuxCdQiz5q-6" target="r17a9l35mVNuxCdQiz5q-18">
          <mxGeometry relative="1" as="geometry">
            <Array as="points">
              <mxPoint x="1980" y="307" />
            </Array>
          </mxGeometry>
        </mxCell>
        <mxCell id="r17a9l35mVNuxCdQiz5q-45" value="" style="curved=1;startArrow=none;endArrow=block;exitX=0;exitY=0.77;entryX=0.5;entryY=0;rounded=0;fontSize=12;startSize=8;endSize=8;" edge="1" parent="1" source="r17a9l35mVNuxCdQiz5q-7" target="r17a9l35mVNuxCdQiz5q-19">
          <mxGeometry relative="1" as="geometry">
            <Array as="points">
              <mxPoint x="2196" y="307" />
            </Array>
          </mxGeometry>
        </mxCell>
        <mxCell id="r17a9l35mVNuxCdQiz5q-46" value="" style="curved=1;startArrow=none;endArrow=block;exitX=0.5;exitY=1;entryX=0.5;entryY=0;rounded=0;fontSize=12;startSize=8;endSize=8;" edge="1" parent="1" source="r17a9l35mVNuxCdQiz5q-7" target="r17a9l35mVNuxCdQiz5q-20">
          <mxGeometry relative="1" as="geometry">
            <Array as="points" />
          </mxGeometry>
        </mxCell>
        <mxCell id="r17a9l35mVNuxCdQiz5q-47" value="" style="curved=1;startArrow=none;endArrow=block;exitX=1;exitY=0.74;entryX=0.5;entryY=0;rounded=0;fontSize=12;startSize=8;endSize=8;" edge="1" parent="1" source="r17a9l35mVNuxCdQiz5q-7" target="r17a9l35mVNuxCdQiz5q-21">
          <mxGeometry relative="1" as="geometry">
            <Array as="points">
              <mxPoint x="2697" y="307" />
            </Array>
          </mxGeometry>
        </mxCell>
        <mxCell id="r17a9l35mVNuxCdQiz5q-48" value="" style="curved=1;startArrow=none;endArrow=block;exitX=0;exitY=0.84;entryX=0.5;entryY=0;rounded=0;fontSize=12;startSize=8;endSize=8;" edge="1" parent="1" source="r17a9l35mVNuxCdQiz5q-8" target="r17a9l35mVNuxCdQiz5q-22">
          <mxGeometry relative="1" as="geometry">
            <Array as="points">
              <mxPoint x="2945" y="307" />
            </Array>
          </mxGeometry>
        </mxCell>
        <mxCell id="r17a9l35mVNuxCdQiz5q-49" value="" style="curved=1;startArrow=none;endArrow=block;exitX=0.5;exitY=1;entryX=0.5;entryY=0;rounded=0;fontSize=12;startSize=8;endSize=8;" edge="1" parent="1" source="r17a9l35mVNuxCdQiz5q-8" target="r17a9l35mVNuxCdQiz5q-23">
          <mxGeometry relative="1" as="geometry">
            <Array as="points" />
          </mxGeometry>
        </mxCell>
        <mxCell id="r17a9l35mVNuxCdQiz5q-50" value="" style="curved=1;startArrow=none;endArrow=block;exitX=1.01;exitY=0.84;entryX=0.5;entryY=0;rounded=0;fontSize=12;startSize=8;endSize=8;" edge="1" parent="1" source="r17a9l35mVNuxCdQiz5q-8" target="r17a9l35mVNuxCdQiz5q-24">
          <mxGeometry relative="1" as="geometry">
            <Array as="points">
              <mxPoint x="3393" y="307" />
            </Array>
          </mxGeometry>
        </mxCell>
        <mxCell id="r17a9l35mVNuxCdQiz5q-51" value="" style="curved=1;startArrow=none;endArrow=block;exitX=0;exitY=0.9;entryX=0.5;entryY=0;rounded=0;fontSize=12;startSize=8;endSize=8;" edge="1" parent="1" source="r17a9l35mVNuxCdQiz5q-9" target="r17a9l35mVNuxCdQiz5q-25">
          <mxGeometry relative="1" as="geometry">
            <Array as="points">
              <mxPoint x="3617" y="307" />
            </Array>
          </mxGeometry>
        </mxCell>
        <mxCell id="r17a9l35mVNuxCdQiz5q-52" value="" style="curved=1;startArrow=none;endArrow=block;exitX=0.5;exitY=1;entryX=0.5;entryY=0;rounded=0;fontSize=12;startSize=8;endSize=8;" edge="1" parent="1" source="r17a9l35mVNuxCdQiz5q-9" target="r17a9l35mVNuxCdQiz5q-26">
          <mxGeometry relative="1" as="geometry">
            <Array as="points" />
          </mxGeometry>
        </mxCell>
        <mxCell id="r17a9l35mVNuxCdQiz5q-53" value="" style="curved=1;startArrow=none;endArrow=block;exitX=1;exitY=0.86;entryX=0.5;entryY=0;rounded=0;fontSize=12;startSize=8;endSize=8;" edge="1" parent="1" source="r17a9l35mVNuxCdQiz5q-9" target="r17a9l35mVNuxCdQiz5q-27">
          <mxGeometry relative="1" as="geometry">
            <Array as="points">
              <mxPoint x="4078" y="307" />
            </Array>
          </mxGeometry>
        </mxCell>
      </root>
    </mxGraphModel>
  </diagram>
</mxfile>
